<svg xmlns="http://www.w3.org/2000/svg" viewBox="0 0 120 120">
    <defs>
        <linearGradient id="gradient_1" x1="142.52" y1="-1020.04" x2="11.54" y2="-824.11" gradientTransform="translate(0 -836.49) scale(1 -1)" gradientUnits="userSpaceOnUse">
            <stop offset=".8" stop-color="#f30745"/>
            <stop offset=".98" stop-color="#ffbcce"/>
        </linearGradient>
        <linearGradient id="gradient_2" x1="57.13" y1="-895.92" x2="33.84" y2="-892.97" gradientTransform="translate(0 -836.49) scale(1 -1)" gradientUnits="userSpaceOnUse">
            <stop offset=".15" stop-color="#fff"/>
            <stop offset=".62" stop-color="#fff" stop-opacity=".6"/>
            <stop offset="1" stop-color="#fff" stop-opacity="0"/>
        </linearGradient>
        <linearGradient id="gradient_3" x1="36.51" y1="-923.79" x2="42.83" y2="-889.33" gradientTransform="translate(0 -836.49) scale(1 -1)" gradientUnits="userSpaceOnUse">
            <stop offset=".15" stop-color="#fff"/>
            <stop offset=".62" stop-color="#fff" stop-opacity=".6"/>
            <stop offset="1" stop-color="#fff" stop-opacity="0"/>
        </linearGradient>
    </defs>
    <path fill="url(#gradient_1)" d="M118.12,66.36c-5.5,48-17,57.2-65,51.7C5.02,112.56-4.08,101.06,1.42,53.06,7.02,5.06,18.42-4.14,66.42,1.46c48,5.4,57.1,16.9,51.7,64.9Z"/>
    <path fill="url(#gradient_2)" d="M79.72,31.76c-4.9,0-8.8,1.9-12.6,7.7l-15,22.7,1.4-17.6c.3-6.7-3.9-12.8-11.2-12.8-6.9,0-11.2,4.7-11.7,10.6l-2.4,32.6c-.5,8.1,3.7,12.7,10.4,12.7s10.9-4.9,14-9.3l14.5-22.1-1.3,18.6c-.6,7.6,3.5,12.7,10.9,12.7,6.9,0,11.5-4.1,11.8-10.3l2.4-32.9c.6-6.3-2.5-12.6-11.2-12.6h0Z"/>
    <path fill="url(#gradient_3)" d="M53.42,44.56l-1.4,17.6,.5,16.1c-3.1,4.4-7.4,9.3-14,9.3s-10.9-4.7-10.4-12.8l2.4-32.6c.4-5.9,4.8-10.6,11.7-10.6,7.4,.2,11.7,6.3,11.2,13Z"/>
    <path fill="#fff" d="M53.42,43.66c0-6.2-4-11.7-11.4-11.7s-11.6,5.5-11.6,11.5c0,6.4,4.8,11.4,11.5,11.4s11.5-5,11.5-11.2h0Z"/>
</svg>
